<svg width="1189" height="186" viewBox="0 0 1189 186" fill="none" xmlns="http://www.w3.org/2000/svg">
<g clip-path="url(#clip0_4077_81)">
<path d="M152 0C171.882 0 188 16.1178 188 36V150C188 169.572 172.382 185.496 152.929 185.988L152 186H36L35.0713 185.988C15.6183 185.496 0 169.572 0 150V36C0 16.1178 16.1178 7.08686e-07 36 0H152ZM36 17C25.5066 17 17 25.5066 17 36V150C17 160.493 25.5066 169 36 169H152C162.493 169 171 160.493 171 150V36C171 25.5066 162.493 17 152 17H36ZM94 52.5C114.282 52.5 130.457 68.2213 130.986 88H131V132H114V89C114 78.3182 105.41 69.5 94 69.5C82.5899 69.5 74 78.3182 74 89V132H57V89C57 68.7538 73.3776 52.5 94 52.5Z" fill="#1C6EE0"/>
<path d="M1177.6 56.7061C1176.24 54.9138 1174.36 53.3775 1171.97 52.0973C1169.58 50.7317 1166.98 50.0489 1164.16 50.0489C1161.69 50.0489 1159.43 50.561 1157.38 51.5852C1155.33 52.6094 1154.3 54.3163 1154.3 56.7061C1154.3 59.0959 1155.41 60.8028 1157.63 61.827C1159.94 62.7658 1163.27 63.7473 1167.62 64.7715C1169.92 65.2836 1172.23 65.9664 1174.53 66.8199C1176.92 67.6734 1179.06 68.8256 1180.93 70.2765C1182.9 71.642 1184.48 73.3917 1185.67 75.5254C1186.86 77.5738 1187.46 80.0915 1187.46 83.0787C1187.46 86.834 1186.74 90.0346 1185.29 92.6804C1183.92 95.2408 1182.04 97.3319 1179.65 98.9535C1177.35 100.575 1174.62 101.727 1171.46 102.41C1168.39 103.178 1165.19 103.562 1161.86 103.562C1157.08 103.562 1152.43 102.709 1147.9 101.002C1143.38 99.2095 1139.62 96.6918 1136.64 93.4485L1146.75 83.9749C1148.46 86.1939 1150.68 88.0289 1153.41 89.4798C1156.14 90.9308 1159.17 91.6562 1162.5 91.6562C1163.61 91.6562 1164.72 91.5282 1165.83 91.2722C1167.02 91.0161 1168.09 90.632 1169.03 90.12C1170.05 89.5225 1170.86 88.7544 1171.46 87.8156C1172.06 86.8767 1172.36 85.7245 1172.36 84.3589C1172.36 81.7985 1171.16 79.9635 1168.77 78.854C1166.47 77.7444 1162.97 76.6349 1158.27 75.5254C1155.97 75.0133 1153.71 74.3732 1151.49 73.6051C1149.35 72.7516 1147.43 71.6847 1145.73 70.4045C1144.02 69.0389 1142.65 67.3746 1141.63 65.4116C1140.61 63.4486 1140.09 61.0162 1140.09 58.1143C1140.09 54.7004 1140.78 51.7559 1142.14 49.2808C1143.59 46.8057 1145.47 44.8 1147.78 43.2637C1150.08 41.6421 1152.68 40.4473 1155.58 39.6791C1158.49 38.911 1161.47 38.5269 1164.55 38.5269C1168.98 38.5269 1173.29 39.2951 1177.48 40.8313C1181.74 42.3676 1185.12 44.7147 1187.59 47.8726L1177.6 56.7061Z" fill="#1D6EE0"/>
<path d="M1111.13 64.8995C1111.13 62.9365 1110.83 61.0589 1110.24 59.2665C1109.72 57.4742 1108.87 55.8953 1107.68 54.5297C1106.48 53.1641 1104.95 52.0973 1103.07 51.3292C1101.28 50.4757 1099.14 50.0489 1096.67 50.0489C1092.06 50.0489 1088.13 51.4572 1084.89 54.2737C1081.73 57.0048 1079.98 60.5468 1079.64 64.8995H1111.13ZM1126.5 71.8127C1126.5 72.4955 1126.5 73.1783 1126.5 73.8611C1126.5 74.5439 1126.45 75.2267 1126.37 75.9095H1079.64C1079.81 78.1285 1080.37 80.1769 1081.3 82.0545C1082.33 83.8469 1083.65 85.4258 1085.27 86.7914C1086.89 88.0716 1088.73 89.0958 1090.78 89.8639C1092.83 90.632 1094.96 91.0161 1097.18 91.0161C1101.02 91.0161 1104.26 90.3333 1106.91 88.9678C1109.55 87.5168 1111.73 85.5538 1113.44 83.0787L1123.68 91.2722C1117.62 99.4656 1108.83 103.562 1097.31 103.562C1092.53 103.562 1088.13 102.837 1084.12 101.386C1080.11 99.8497 1076.61 97.716 1073.62 94.9848C1070.72 92.2537 1068.42 88.9251 1066.71 84.9991C1065.09 80.9877 1064.28 76.4642 1064.28 71.4287C1064.28 66.4785 1065.09 61.9977 1066.71 57.9863C1068.42 53.8896 1070.72 50.433 1073.62 47.6165C1076.52 44.7147 1079.94 42.4956 1083.86 40.9593C1087.88 39.3377 1092.19 38.5269 1096.79 38.5269C1101.06 38.5269 1104.99 39.2524 1108.57 40.7033C1112.24 42.0689 1115.4 44.1599 1118.05 46.9764C1120.69 49.7075 1122.74 53.1641 1124.19 57.3462C1125.73 61.4429 1126.5 66.2651 1126.5 71.8127Z" fill="#1D6EE0"/>
<path d="M1012.96 52.6094V40.3192H1023.71V22.5241H1038.82V40.3192H1054.18V52.6094H1038.82V81.1584C1038.82 83.8895 1039.29 86.1513 1040.23 87.9436C1041.25 89.7359 1043.47 90.632 1046.89 90.632C1047.91 90.632 1049.02 90.5467 1050.21 90.376C1051.41 90.12 1052.48 89.7786 1053.41 89.3518L1053.93 101.386C1052.56 101.898 1050.94 102.282 1049.06 102.538C1047.18 102.88 1045.39 103.05 1043.69 103.05C1039.59 103.05 1036.26 102.495 1033.7 101.386C1031.14 100.191 1029.09 98.6121 1027.55 96.6491C1026.1 94.6007 1025.08 92.2963 1024.48 89.7359C1023.97 87.0901 1023.71 84.2736 1023.71 81.2864V52.6094H1012.96Z" fill="#1D6EE0"/>
<path d="M937.51 70.7886C937.51 65.9237 938.363 61.5283 940.07 57.6023C941.862 53.5909 944.252 50.177 947.239 47.3605C950.227 44.544 953.769 42.3676 957.865 40.8313C961.962 39.2951 966.315 38.5269 970.924 38.5269C975.532 38.5269 979.885 39.2951 983.982 40.8313C988.079 42.3676 991.621 44.544 994.608 47.3605C997.595 50.177 999.942 53.5909 1001.65 57.6023C1003.44 61.5283 1004.34 65.9237 1004.34 70.7886C1004.34 75.6534 1003.44 80.0915 1001.65 84.1029C999.942 88.1143 997.595 91.5709 994.608 94.4727C991.621 97.2892 988.079 99.5083 983.982 101.13C979.885 102.751 975.532 103.562 970.924 103.562C966.315 103.562 961.962 102.751 957.865 101.13C953.769 99.5083 950.227 97.2892 947.239 94.4727C944.252 91.5709 941.862 88.1143 940.07 84.1029C938.363 80.0915 937.51 75.6534 937.51 70.7886ZM953.128 70.7886C953.128 73.1783 953.47 75.5681 954.153 77.9578C954.921 80.3476 956.03 82.4813 957.481 84.3589C958.932 86.2366 960.767 87.7729 962.986 88.9678C965.205 90.1626 967.851 90.7601 970.924 90.7601C973.996 90.7601 976.642 90.1626 978.861 88.9678C981.08 87.7729 982.915 86.2366 984.366 84.3589C985.817 82.4813 986.884 80.3476 987.566 77.9578C988.335 75.5681 988.719 73.1783 988.719 70.7886C988.719 68.3988 988.335 66.0517 987.566 63.7473C986.884 61.3576 985.817 59.2239 984.366 57.3462C982.915 55.4686 981.08 53.975 978.861 52.8654C976.642 51.6705 973.996 51.0731 970.924 51.0731C967.851 51.0731 965.205 51.6705 962.986 52.8654C960.767 53.975 958.932 55.4686 957.481 57.3462C956.03 59.2239 954.921 61.3576 954.153 63.7473C953.47 66.0517 953.128 68.3988 953.128 70.7886Z" fill="#1D6EE0"/>
<path d="M839.41 11.1301H860.789L902.909 78.982H903.165V11.1301H919.296V101.77H898.812L855.796 31.7417H855.54V101.77H839.41V11.1301Z" fill="#1D6EE0"/>
<path d="M782.851 101.77H768.256V92.5524H768C765.866 96.137 762.879 98.8682 759.039 100.746C755.283 102.623 751.229 103.562 746.876 103.562C742.182 103.562 737.957 102.709 734.202 101.002C730.532 99.2096 727.374 96.8625 724.728 93.9606C722.168 90.9734 720.162 87.5168 718.711 83.5908C717.346 79.5795 716.663 75.312 716.663 70.7886C716.663 66.2651 717.389 62.0404 718.839 58.1144C720.29 54.1883 722.339 50.7744 724.985 47.8726C727.63 44.9707 730.788 42.709 734.458 41.0874C738.128 39.3804 742.139 38.5269 746.492 38.5269C749.309 38.5269 751.827 38.8683 754.046 39.5511C756.265 40.1485 758.185 40.9167 759.807 41.8555C761.514 42.7943 762.964 43.8185 764.159 44.928C765.354 46.0376 766.336 47.1044 767.104 48.1286H767.488V4.98505H782.851V101.77ZM732.282 70.7886C732.282 73.1783 732.623 75.5681 733.306 77.9578C734.074 80.3476 735.184 82.4813 736.635 84.359C738.085 86.2366 739.92 87.7729 742.14 88.9678C744.359 90.1626 746.962 90.7601 749.949 90.7601C752.765 90.7601 755.283 90.2053 757.502 89.0958C759.721 87.9009 761.599 86.3646 763.135 84.487C764.757 82.6093 765.952 80.5183 766.72 78.2139C767.573 75.8241 768 73.4344 768 71.0446C768 68.6549 767.573 66.2651 766.72 63.8754C765.952 61.4856 764.757 59.3519 763.135 57.4742C761.599 55.5966 759.721 54.0603 757.502 52.8654C755.283 51.6706 752.765 51.0731 749.949 51.0731C746.962 51.0731 744.359 51.6706 742.14 52.8654C739.92 53.975 738.085 55.4686 736.635 57.3462C735.184 59.2239 734.074 61.3576 733.306 63.7473C732.623 66.0517 732.282 68.3988 732.282 70.7886Z" fill="#1D6EE0"/>
<path d="M673.432 40.3192H688.155V50.561H688.411C690.118 46.9764 692.508 44.0746 695.58 41.8555C698.653 39.6364 702.238 38.5269 706.334 38.5269C706.932 38.5269 707.572 38.5696 708.255 38.6549C708.937 38.6549 709.535 38.7403 710.047 38.911V52.9935C709.023 52.7374 708.127 52.5667 707.358 52.4814C706.676 52.396 705.993 52.3533 705.31 52.3533C701.811 52.3533 698.994 52.9934 696.861 54.2737C694.727 55.5539 693.063 57.0902 691.868 58.8825C690.673 60.6748 689.862 62.5098 689.435 64.3874C689.009 66.2651 688.795 67.7587 688.795 68.8682V101.77H673.432V40.3192Z" fill="#1D6EE0"/>
<path d="M638.635 93.9606H638.251C636.715 96.6918 634.24 98.9535 630.826 100.746C627.412 102.453 623.529 103.306 619.176 103.306C616.701 103.306 614.098 102.965 611.367 102.282C608.721 101.685 606.246 100.66 603.941 99.2095C601.722 97.6733 599.845 95.7103 598.308 93.3205C596.857 90.8454 596.132 87.8156 596.132 84.2309C596.132 79.6221 597.412 75.9521 599.973 73.221C602.618 70.4898 605.99 68.3988 610.086 66.9479C614.183 65.497 618.707 64.5581 623.657 64.1314C628.692 63.6193 633.6 63.3633 638.379 63.3633V61.827C638.379 57.9863 636.971 55.1698 634.155 53.3775C631.423 51.4999 628.138 50.561 624.297 50.561C621.054 50.561 617.938 51.2438 614.951 52.6094C611.964 53.975 609.489 55.6392 607.526 57.6023L599.589 48.2566C603.088 45.0134 607.099 42.581 611.623 40.9593C616.231 39.3377 620.883 38.5269 625.577 38.5269C631.039 38.5269 635.52 39.2951 639.019 40.8313C642.604 42.3676 645.421 44.3733 647.469 46.8484C649.517 49.3235 650.926 52.0973 651.694 55.1698C652.547 58.2424 652.974 61.3149 652.974 64.3874V101.77H638.635V93.9606ZM638.379 73.7331H634.923C632.448 73.7331 629.844 73.8611 627.113 74.1171C624.382 74.2878 621.864 74.7573 619.56 75.5254C617.256 76.2082 615.335 77.2324 613.799 78.5979C612.263 79.8782 611.495 81.6705 611.495 83.9749C611.495 85.4258 611.793 86.6633 612.391 87.6875C613.074 88.6264 613.927 89.3945 614.951 89.9919C615.975 90.5894 617.128 91.0161 618.408 91.2721C619.688 91.5282 620.968 91.6562 622.248 91.6562C627.54 91.6562 631.551 90.248 634.283 87.4315C637.014 84.615 638.379 80.7743 638.379 75.9095V73.7331Z" fill="#1D6EE0"/>
<path d="M579.26 101.77H564.665V92.5524H564.409C562.276 96.137 559.288 98.8682 555.448 100.746C551.692 102.623 547.638 103.562 543.286 103.562C538.591 103.562 534.367 102.709 530.611 101.002C526.941 99.2096 523.784 96.8625 521.138 93.9606C518.577 90.9734 516.572 87.5168 515.121 83.5908C513.755 79.5795 513.072 75.312 513.072 70.7886C513.072 66.2651 513.798 62.0404 515.249 58.1144C516.7 54.1883 518.748 50.7744 521.394 47.8726C524.04 44.9707 527.198 42.709 530.867 41.0874C534.537 39.3804 538.549 38.5269 542.902 38.5269C545.718 38.5269 548.236 38.8683 550.455 39.5511C552.674 40.1485 554.594 40.9167 556.216 41.8555C557.923 42.7943 559.374 43.8185 560.569 44.928C561.764 46.0376 562.745 47.1044 563.513 48.1286H563.897V4.98505H579.26V101.77ZM528.691 70.7886C528.691 73.1783 529.032 75.5681 529.715 77.9578C530.483 80.3476 531.593 82.4813 533.044 84.359C534.495 86.2366 536.33 87.7729 538.549 88.9678C540.768 90.1626 543.371 90.7601 546.358 90.7601C549.175 90.7601 551.692 90.2053 553.912 89.0958C556.131 87.9009 558.008 86.3646 559.544 84.487C561.166 82.6093 562.361 80.5183 563.129 78.2139C563.983 75.8241 564.409 73.4344 564.409 71.0446C564.409 68.6549 563.983 66.2651 563.129 63.8754C562.361 61.4856 561.166 59.3519 559.544 57.4742C558.008 55.5966 556.131 54.0603 553.912 52.8654C551.692 51.6706 549.175 51.0731 546.358 51.0731C543.371 51.0731 540.768 51.6706 538.549 52.8654C536.33 53.975 534.495 55.4686 533.044 57.3462C531.593 59.2239 530.483 61.3576 529.715 63.7473C529.032 66.0517 528.691 68.3988 528.691 70.7886Z" fill="#1D6EE0"/>
<path d="M439.712 40.3192H454.306V50.177H454.562C455.928 47.1044 458.275 44.4159 461.603 42.1115C465.017 39.7218 469.029 38.5269 473.637 38.5269C477.649 38.5269 481.063 39.2524 483.879 40.7033C486.781 42.0689 489.128 43.9039 490.921 46.2083C492.798 48.5127 494.164 51.1585 495.017 54.1457C495.871 57.1328 496.297 60.2054 496.297 63.3633V101.77H480.935V67.716C480.935 65.9237 480.807 64.046 480.551 62.083C480.295 60.12 479.74 58.3704 478.886 56.8341C478.033 55.2125 476.838 53.8896 475.302 52.8654C473.851 51.8412 471.888 51.3292 469.413 51.3292C466.938 51.3292 464.804 51.8412 463.012 52.8654C461.219 53.8043 459.726 55.0418 458.531 56.5781C457.421 58.1143 456.568 59.9067 455.97 61.955C455.373 63.918 455.074 65.9237 455.074 67.9721V101.77H439.712V40.3192Z" fill="#1D6EE0"/>
<path d="M404.914 93.9606H404.53C402.994 96.6918 400.519 98.9535 397.105 100.746C393.691 102.453 389.808 103.306 385.455 103.306C382.98 103.306 380.377 102.965 377.646 102.282C375 101.685 372.525 100.66 370.22 99.2095C368.001 97.6733 366.124 95.7103 364.587 93.3205C363.136 90.8454 362.411 87.8156 362.411 84.2309C362.411 79.6221 363.691 75.9521 366.252 73.221C368.897 70.4898 372.269 68.3988 376.365 66.9479C380.462 65.497 384.986 64.5581 389.936 64.1314C394.971 63.6193 399.879 63.3633 404.658 63.3633V61.827C404.658 57.9863 403.25 55.1698 400.434 53.3775C397.702 51.4999 394.417 50.561 390.576 50.561C387.333 50.561 384.217 51.2438 381.23 52.6094C378.243 53.975 375.768 55.6392 373.805 57.6023L365.868 48.2566C369.367 45.0134 373.378 42.581 377.902 40.9593C382.51 39.3377 387.162 38.5269 391.856 38.5269C397.318 38.5269 401.799 39.2951 405.298 40.8313C408.883 42.3676 411.7 44.3733 413.748 46.8484C415.796 49.3235 417.205 52.0973 417.973 55.1698C418.826 58.2424 419.253 61.3149 419.253 64.3874V101.77H404.914V93.9606ZM404.658 73.7331H401.202C398.727 73.7331 396.124 73.8611 393.392 74.1171C390.661 74.2878 388.143 74.7573 385.839 75.5254C383.535 76.2082 381.614 77.2324 380.078 78.5979C378.542 79.8782 377.774 81.6705 377.774 83.9749C377.774 85.4258 378.072 86.6633 378.67 87.6875C379.353 88.6264 380.206 89.3945 381.23 89.9919C382.254 90.5894 383.407 91.0161 384.687 91.2721C385.967 91.5282 387.247 91.6562 388.528 91.6562C393.819 91.6562 397.831 90.248 400.562 87.4315C403.293 84.615 404.658 80.7743 404.658 75.9095V73.7331Z" fill="#1D6EE0"/>
<path d="M311.862 52.6094V40.3192H322.616V22.5241H337.723V40.3192H353.085V52.6094H337.723V81.1584C337.723 83.8895 338.192 86.1513 339.131 87.9436C340.155 89.7359 342.374 90.632 345.788 90.632C346.812 90.632 347.922 90.5467 349.117 90.376C350.312 90.12 351.378 89.7786 352.317 89.3518L352.829 101.386C351.464 101.898 349.842 102.282 347.964 102.538C346.087 102.88 344.294 103.05 342.588 103.05C338.491 103.05 335.162 102.495 332.602 101.386C330.041 100.191 327.993 98.6121 326.457 96.6491C325.006 94.6007 323.982 92.2963 323.384 89.7359C322.872 87.0901 322.616 84.2736 322.616 81.2864V52.6094H311.862Z" fill="#1D6EE0"/>
<path d="M292.357 30.0774C290.65 27.8584 288.217 26.0234 285.059 24.5725C281.987 23.0362 278.872 22.2681 275.714 22.2681C273.836 22.2681 271.958 22.5241 270.081 23.0362C268.203 23.4629 266.496 24.1884 264.96 25.2126C263.424 26.1514 262.143 27.4316 261.119 29.0533C260.18 30.5895 259.711 32.4672 259.711 34.6862C259.711 36.7346 260.138 38.4842 260.991 39.9352C261.845 41.3861 262.997 42.6236 264.448 43.6478C265.984 44.672 267.819 45.5681 269.953 46.3363C272.087 47.1044 274.434 47.8725 276.994 48.6407C279.896 49.5795 282.883 50.6464 285.956 51.8412C289.113 53.0361 291.973 54.6151 294.533 56.5781C297.179 58.5411 299.313 61.0162 300.934 64.0034C302.641 66.9906 303.495 70.7032 303.495 75.1413C303.495 80.0062 302.599 84.2736 300.806 87.9436C299.014 91.5282 296.624 94.5154 293.637 96.9051C290.65 99.2949 287.15 101.087 283.139 102.282C279.128 103.477 274.903 104.074 270.465 104.074C264.576 104.074 258.815 103.008 253.182 100.874C247.549 98.6548 242.94 95.4115 239.355 91.1441L250.877 80.3902C253.097 83.4628 256.041 85.8952 259.711 87.6875C263.466 89.4798 267.136 90.376 270.721 90.376C272.599 90.376 274.519 90.1626 276.482 89.7359C278.445 89.2238 280.195 88.413 281.731 87.3035C283.352 86.1939 284.633 84.8284 285.572 83.2067C286.596 81.4998 287.108 79.4087 287.108 76.9336C287.108 74.5439 286.553 72.5809 285.444 71.0446C284.334 69.423 282.84 68.0574 280.963 66.9479C279.085 65.753 276.866 64.7288 274.306 63.8754C271.745 63.0219 269.057 62.1257 266.24 61.1869C263.509 60.3334 260.778 59.3092 258.047 58.1143C255.316 56.9195 252.84 55.3405 250.621 53.3775C248.488 51.4145 246.738 49.0248 245.372 46.2083C244.007 43.3064 243.324 39.7218 243.324 35.4544C243.324 30.8456 244.263 26.8769 246.141 23.5483C248.104 20.2197 250.621 17.4886 253.694 15.3549C256.852 13.1358 260.394 11.5142 264.32 10.49C268.331 9.38048 272.385 8.82571 276.482 8.82571C281.091 8.82571 285.742 9.63652 290.436 11.2581C295.216 12.8798 299.355 15.3122 302.855 18.5554L292.357 30.0774Z" fill="#1D6EE0"/>
<path d="M1147.53 83.3745C1149.14 85.4708 1151.25 87.2182 1153.87 88.61C1156.45 89.9796 1159.32 90.6719 1162.5 90.6719V91.6567L1161.88 91.6481C1158.79 91.563 1155.97 90.8396 1153.41 89.4794C1150.68 88.0285 1148.46 86.1936 1146.75 83.9746L1136.64 93.4484C1139.62 96.6916 1143.38 99.2093 1147.9 101.002C1152.14 102.602 1156.5 103.452 1160.96 103.552L1161.86 103.563C1165.19 103.563 1168.39 103.179 1171.46 102.411C1174.62 101.728 1177.35 100.575 1179.65 98.9532C1182.04 97.3316 1183.92 95.2403 1185.29 92.68C1186.74 90.0342 1187.46 86.8334 1187.46 83.0783C1187.46 80.0913 1186.86 77.5733 1185.67 75.525C1184.47 73.3915 1182.9 71.6415 1180.93 70.276C1179.17 68.9159 1177.19 67.8183 1174.98 66.9832L1174.53 66.8197C1172.23 65.9662 1169.92 65.2833 1167.62 64.7712C1163.27 63.7471 1159.94 62.7662 1157.63 61.8274C1155.55 60.8672 1154.45 59.3064 1154.32 57.1459L1154.3 56.7064C1154.3 54.466 1155.2 52.8255 1157.01 51.7853L1157.38 51.5853C1159.43 50.5611 1161.69 50.0494 1164.16 50.0494L1164.69 50.0571C1167.3 50.1372 1169.73 50.8167 1171.97 52.0969C1174.36 53.3771 1176.24 54.9141 1177.6 56.7064L1187.59 47.8721C1185.12 44.7145 1181.74 42.3677 1177.48 40.8315C1173.56 39.3912 1169.52 38.6258 1165.38 38.5359L1164.55 38.5272C1161.47 38.5272 1158.49 38.9112 1155.58 39.6793L1155.04 39.8284C1152.36 40.5985 1149.94 41.7434 1147.78 43.2636L1147.35 43.5569C1145.24 45.0522 1143.5 46.9605 1142.14 49.281C1140.78 51.7561 1140.09 54.7004 1140.09 58.1143L1140.1 58.6528C1140.16 61.3184 1140.67 63.5714 1141.63 65.4117C1142.65 67.3747 1144.02 69.0393 1145.73 70.4049C1147.43 71.685 1149.35 72.752 1151.49 73.6055C1153.71 74.3736 1155.97 75.0129 1158.27 75.525C1162.97 76.6345 1166.47 77.745 1168.77 78.8545C1171.16 79.964 1172.36 81.799 1172.36 84.3593L1172.34 84.8613C1172.28 86.0094 1171.98 86.9942 1171.46 87.8156L1171.23 88.1599C1170.66 88.944 1169.92 89.5972 1169.03 90.1199L1168.67 90.3065C1167.82 90.7264 1166.87 91.048 1165.83 91.272C1164.72 91.528 1163.61 91.6567 1162.5 91.6567V90.6719C1163.53 90.6719 1164.57 90.5519 1165.61 90.3122L1165.61 90.3113L1165.62 90.3094C1166.73 90.0709 1167.71 89.7165 1168.55 89.2572C1169.44 88.7354 1170.12 88.0788 1170.63 87.2867C1171.1 86.5385 1171.37 85.5801 1171.37 84.3593C1171.37 83.237 1171.11 82.3321 1170.63 81.6001C1170.16 80.8663 1169.42 80.2398 1168.36 79.7469L1168.34 79.7412C1166.14 78.6787 1162.72 77.5887 1158.05 76.4839C1155.71 75.9641 1153.42 75.3145 1151.17 74.5354L1151.14 74.5277L1151.12 74.5191C1148.91 73.636 1146.92 72.5283 1145.14 71.1925L1145.11 71.1733C1143.3 69.7213 1141.84 67.95 1140.76 65.8676C1139.64 63.7271 1139.11 61.1272 1139.11 58.1143C1139.11 54.5684 1139.82 51.4531 1141.28 48.805L1141.29 48.7934L1141.29 48.7828C1142.72 46.3462 1144.55 44.3326 1146.78 42.7539L1147.23 42.4442C1149.63 40.7586 1152.33 39.521 1155.33 38.7272C1158.32 37.9368 1161.39 37.5424 1164.55 37.5424C1169.1 37.5425 1173.52 38.33 1177.81 39.9044C1182.23 41.495 1185.76 43.9433 1188.37 47.2653L1188.94 47.9952L1177.46 58.146L1176.82 57.3026C1175.56 55.643 1173.8 54.1922 1171.51 52.9653L1171.5 52.9586L1171.48 52.9528C1169.25 51.6744 1166.81 51.0342 1164.16 51.0342C1161.83 51.0342 1159.72 51.5159 1157.82 52.4662C1156.94 52.9074 1156.32 53.4707 1155.92 54.1405C1155.51 54.8128 1155.29 55.6541 1155.29 56.7064C1155.29 57.7443 1155.53 58.5748 1155.96 59.2424C1156.39 59.9067 1157.06 60.4749 1158.03 60.9234C1160.26 61.8301 1163.52 62.7946 1167.83 63.8105L1168.71 64.0144C1170.77 64.5092 1172.82 65.1366 1174.87 65.8964C1177.34 66.7797 1179.56 67.9747 1181.52 69.4855C1183.59 70.9325 1185.26 72.7838 1186.52 75.0288L1186.76 75.4539C1187.9 77.6018 1188.45 80.1566 1188.45 83.0783C1188.45 86.9543 1187.7 90.3225 1186.15 93.1425L1186.16 93.1435C1184.72 95.8443 1182.73 98.0569 1180.21 99.7687L1180.21 99.7677C1177.79 101.465 1174.95 102.658 1171.7 103.365L1171.7 103.365C1168.54 104.154 1165.26 104.547 1161.86 104.547C1156.96 104.547 1152.19 103.671 1147.56 101.923L1147.55 101.92L1147.54 101.917C1142.89 100.076 1139.01 97.4788 1135.91 94.1158L1135.25 93.3974L1146.87 82.5138L1147.53 83.3745Z" fill="#1C6EE0"/>
<path d="M1063.29 71.4291C1063.29 66.3705 1064.12 61.7614 1065.8 57.6171L1065.8 57.6075C1067.55 53.3997 1069.93 49.8276 1072.94 46.9094C1075.75 44.1014 1079.02 41.9142 1082.75 40.3477L1083.51 40.0419C1087.64 38.3727 1092.07 37.5424 1096.79 37.5424C1101.16 37.5424 1105.21 38.2845 1108.92 39.7803C1112.72 41.1962 1116 43.3684 1118.75 46.2911C1121.51 49.1358 1123.62 52.7153 1125.11 57.0006L1125.4 57.8027C1126.79 61.8539 1127.48 66.5297 1127.48 71.8128V73.8613C1127.48 74.5852 1127.44 75.3089 1127.35 76.0319L1127.24 76.8945H1080.74C1080.97 78.5718 1081.45 80.1314 1082.17 81.578C1083.13 83.2553 1084.37 84.7357 1085.89 86.0221C1087.42 87.2336 1089.17 88.2082 1091.12 88.9418C1093.06 89.6678 1095.08 90.0314 1097.18 90.0314V91.0162L1096.76 91.0114C1094.83 90.9694 1092.96 90.6336 1091.16 90.0035L1090.78 89.8641C1088.73 89.096 1086.89 88.0716 1085.27 86.7914C1083.65 85.4259 1082.33 83.8472 1081.3 82.055C1080.36 80.1774 1079.81 78.1287 1079.64 75.9097H1126.37L1126.42 75.3971C1126.46 75.0557 1126.48 74.7143 1126.49 74.3729L1126.5 73.8613V71.8128C1126.5 66.2652 1125.73 61.4426 1124.19 57.3459C1122.83 53.4252 1120.95 50.1425 1118.53 47.497L1118.05 46.9768C1115.57 44.3362 1112.64 42.3333 1109.25 40.968L1108.57 40.7036C1105.21 39.3433 1101.55 38.6209 1097.59 38.5359L1096.79 38.5272C1092.19 38.5272 1087.88 39.3378 1083.86 40.9594L1083.13 41.2556C1079.51 42.7758 1076.34 44.8958 1073.62 47.6163C1070.72 50.4328 1068.42 53.8897 1066.71 57.9864L1066.42 58.7442C1064.99 62.5599 1064.28 66.7883 1064.28 71.4291L1064.29 72.3668C1064.38 77.0276 1065.19 81.2382 1066.71 84.9988C1068.42 88.9248 1070.72 92.254 1073.62 94.9852C1076.61 97.7163 1080.11 99.85 1084.12 101.386C1087.88 102.747 1091.98 103.469 1096.41 103.554L1097.31 103.563C1108.83 103.563 1117.62 99.4655 1123.68 91.272L1113.44 83.0783C1111.73 85.5534 1109.55 87.5169 1106.91 88.9678L1106.4 89.2159C1103.85 90.416 1100.78 91.0162 1097.18 91.0162V90.0314C1100.9 90.0314 1103.97 89.3697 1106.44 88.0984C1108.95 86.7215 1111.01 84.865 1112.63 82.5195L1113.23 81.6492L1125.04 91.0951L1124.47 91.8577C1118.2 100.338 1109.09 104.547 1097.31 104.547C1092.43 104.547 1087.92 103.806 1083.79 102.312L1083.78 102.309L1083.77 102.306C1079.65 100.728 1076.04 98.5307 1072.96 95.7113L1072.95 95.7065L1072.95 95.7016C1069.94 92.8725 1067.56 89.4311 1065.81 85.3921L1065.8 85.3796L1065.8 85.3681C1064.12 81.2221 1063.29 76.5705 1063.29 71.4291ZM1097.13 50.0542C1099.41 50.1042 1101.39 50.5293 1103.07 51.3294C1104.95 52.0976 1106.48 53.1645 1107.68 54.53C1108.87 55.8956 1109.73 57.4741 1110.24 59.2664C1110.83 61.0586 1111.13 62.9363 1111.13 64.8991H1079.64C1079.97 60.6826 1081.62 57.2267 1084.6 54.5319L1084.89 54.2732C1088.13 51.4569 1092.06 50.0494 1096.67 50.0494L1097.13 50.0542ZM1096.67 51.0342C1092.28 51.0342 1088.58 52.3685 1085.53 55.0176L1085.53 55.0186C1082.84 57.3478 1081.24 60.2963 1080.74 63.9143H1110.12C1110.04 62.4102 1109.77 60.9656 1109.3 59.578L1109.3 59.5578L1109.29 59.5367C1108.82 57.8803 1108.03 56.4313 1106.94 55.1782C1105.85 53.9407 1104.45 52.9573 1102.69 52.2402L1102.67 52.2306L1102.64 52.2181C1101.01 51.4411 1099.03 51.0342 1096.67 51.0342Z" fill="#1C6EE0"/>
<path d="M1038.82 81.1587V52.6095H1054.18V40.3189H1038.82V22.5244H1023.71V40.3189H1012.96V52.6095H1023.71V81.2866L1023.73 82.3983C1023.78 84.9749 1024.03 87.421 1024.48 89.7362C1025.08 92.2965 1026.1 94.6006 1027.55 96.6489C1029.09 98.6119 1031.14 100.191 1033.7 101.386C1036.1 102.426 1039.18 102.978 1042.93 103.043L1043.69 103.05C1045.39 103.05 1047.18 102.88 1049.06 102.538C1050.71 102.314 1052.15 101.992 1053.4 101.572L1053.93 101.386L1053.41 89.3515C1052.48 89.7782 1051.41 90.1197 1050.21 90.3757C1049.02 90.5464 1047.91 90.6325 1046.89 90.6325V89.6477C1047.85 89.6477 1048.9 89.567 1050.04 89.4053C1051.16 89.1623 1052.15 88.8444 1053.01 88.4552L1054.34 87.8512L1054.94 102.058L1054.27 102.308C1052.83 102.849 1051.14 103.246 1049.22 103.509C1047.3 103.858 1045.45 104.035 1043.69 104.035C1039.51 104.035 1036.04 103.471 1033.31 102.289L1033.3 102.285L1033.28 102.279C1030.6 101.027 1028.42 99.3563 1026.78 97.2558L1026.76 97.2375L1026.75 97.2182C1025.22 95.061 1024.15 92.6378 1023.52 89.9593L1023.52 89.941L1023.52 89.9227C1022.99 87.2092 1022.73 84.3298 1022.73 81.2866V53.5943H1011.97V39.3341H1022.73V21.5396H1039.8V39.3341H1055.17V53.5943H1039.8V81.1587C1039.8 83.7724 1040.25 85.8577 1041.09 87.4656C1041.85 88.7812 1043.59 89.6477 1046.89 89.6477V90.6325L1046.26 90.6219C1043.2 90.5169 1041.19 89.6238 1040.23 87.9435C1039.35 86.2632 1038.88 84.1702 1038.83 81.6646L1038.82 81.1587Z" fill="#1C6EE0"/>
<path d="M1004.34 70.7886C1004.34 65.9239 1003.44 61.5286 1001.65 57.6027C1000.05 53.842 997.886 50.6057 995.16 47.8952L994.607 47.3605C991.807 44.72 988.519 42.642 984.743 41.1267L983.982 40.8315C980.141 39.3912 976.075 38.6258 971.784 38.5359L970.924 38.5272C966.315 38.5272 961.962 39.2952 957.865 40.8315L957.104 41.1267C953.328 42.642 950.04 44.72 947.24 47.3605L946.687 47.8952C943.956 50.6057 941.75 53.8418 940.07 57.6027L939.76 58.3441C938.26 62.0798 937.51 66.2279 937.51 70.7886L937.52 71.6955C937.62 76.2062 938.47 80.3419 940.07 84.1025C941.862 88.1139 944.252 91.5707 947.24 94.4726C950.227 97.2891 953.769 99.5079 957.865 101.13C961.706 102.65 965.772 103.458 970.063 103.553L970.924 103.563C975.532 103.563 979.885 102.751 983.982 101.13C988.078 99.5079 991.62 97.2891 994.607 94.4726C997.595 91.5707 999.942 88.1139 1001.65 84.1025C1003.33 80.3419 1004.22 76.2062 1004.33 71.6955L1004.34 70.7886ZM987.734 70.7886C987.734 68.5065 987.367 66.2643 986.632 64.0586L986.625 64.0384L986.62 64.0182C985.969 61.7428 984.957 59.722 983.586 57.9479C982.23 56.193 980.513 54.7925 978.42 53.7462L978.408 53.7395L978.394 53.7328C976.347 52.6303 973.868 52.0575 970.924 52.0575C967.979 52.0575 965.5 52.6303 963.453 53.7328L963.426 53.7462C961.334 54.7925 959.617 56.1931 958.261 57.9479C956.884 59.7301 955.825 61.7616 955.09 64.049C954.438 66.256 954.113 68.5017 954.113 70.7886C954.113 73.0793 954.439 75.3741 955.096 77.6754C955.831 79.9552 956.887 81.9799 958.261 83.7572C959.622 85.5187 961.348 86.9668 963.453 88.1003C965.5 89.2027 967.979 89.7756 970.924 89.7756V90.7604L970.352 90.7527C967.71 90.6873 965.395 90.1653 963.407 89.1851L962.987 88.9678C960.906 87.8476 959.163 86.4276 957.758 84.7074L957.481 84.3593C956.03 82.4817 954.92 80.3478 954.152 77.9582C953.512 75.7178 953.172 73.4771 953.132 71.2368L953.128 70.7886C953.128 68.3989 953.47 66.0514 954.152 63.747C954.92 61.3574 956.03 59.2235 957.481 57.3459C958.841 55.5855 960.539 54.163 962.575 53.0778L962.987 52.8653C965.206 51.6706 967.851 51.0727 970.924 51.0727L971.495 51.0804C974.325 51.1504 976.78 51.7453 978.861 52.8653C981.08 53.9748 982.915 55.4682 984.366 57.3459C985.817 59.2235 986.884 61.3573 987.567 63.747C988.335 66.0514 988.719 68.3989 988.719 70.7886L988.714 71.2368C988.669 73.4771 988.287 75.7178 987.567 77.9582L987.434 78.4025C986.749 80.613 985.727 82.5988 984.366 84.3593L984.089 84.7074C982.684 86.4276 980.941 87.8476 978.861 88.9678L978.44 89.1851C976.31 90.2354 973.804 90.7604 970.924 90.7604V89.7756C973.868 89.7756 976.347 89.2027 978.394 88.1003C980.499 86.9668 982.225 85.5187 983.586 83.7572C984.957 81.9831 985.969 79.9623 986.62 77.687L986.629 77.6562C987.368 75.359 987.734 73.0709 987.734 70.7886ZM1005.32 70.7886C1005.32 75.7769 1004.4 80.3538 1002.55 84.5045C1000.79 88.6238 998.376 92.186 995.294 95.1794L995.288 95.1842L995.284 95.1891C992.199 98.0973 988.548 100.382 984.344 102.046C980.127 103.715 975.651 104.547 970.924 104.547C966.197 104.547 961.72 103.715 957.503 102.046C953.299 100.382 949.648 98.0973 946.564 95.1891L946.559 95.1842L946.553 95.1794C943.471 92.1858 941.011 88.6236 939.171 84.5045L939.167 84.4968L939.164 84.4881C937.4 80.3415 936.525 75.7705 936.525 70.7886C936.525 65.807 937.399 61.2751 939.167 57.2093L939.171 57.2007C941.012 53.0792 943.475 49.5557 946.564 46.644C949.652 43.732 953.308 41.4883 957.519 39.9092C961.732 38.3293 966.203 37.5424 970.924 37.5424C975.644 37.5424 980.115 38.3293 984.328 39.9092C988.539 41.4883 992.195 43.732 995.284 46.644C998.37 49.5538 1000.79 53.0748 1002.54 57.193C1004.4 61.2628 1005.32 65.8006 1005.32 70.7886Z" fill="#1C6EE0"/>
<path d="M919.295 11.1301H903.165V78.9824H902.909L860.789 11.1301H839.409V101.77H855.54V31.7414H855.797L898.812 101.77H919.295V11.1301ZM920.28 102.755H898.261L897.973 102.285L856.525 34.8083V102.755H838.424V10.1453H861.337L902.18 75.9405V10.1453H920.28V102.755Z" fill="#1C6EE0"/>
<path d="M782.85 4.98479H767.488V48.1289H767.104C766.432 47.2326 765.596 46.3035 764.597 45.3419L764.159 44.9283C762.965 43.8188 761.514 42.7945 759.807 41.8557C758.388 41.0342 756.74 40.3433 754.864 39.7832L754.045 39.5514C751.965 38.9114 749.622 38.5711 747.017 38.531L746.492 38.5272C742.139 38.5272 738.128 39.3803 734.458 41.0873C730.788 42.7089 727.63 44.9703 724.984 47.8721C722.339 50.774 720.29 54.1883 718.839 58.1143C717.388 62.0403 716.663 66.2652 716.663 70.7886L716.671 71.634C716.751 75.8446 717.431 79.8303 718.711 83.5909C720.162 87.5169 722.168 90.9738 724.729 93.9609C727.374 96.8627 730.532 99.2093 734.202 101.002C737.723 102.602 741.656 103.452 746.001 103.552L746.877 103.563C751.229 103.563 755.283 102.623 759.038 100.746C762.879 98.8681 765.867 96.1367 768.001 92.552H768.256V101.77H782.85V4.98479ZM732.282 70.7886C732.282 68.3989 732.623 66.0514 733.306 63.747C734.074 61.3574 735.184 59.2235 736.634 57.3459C738.085 55.4683 739.92 53.9748 742.139 52.8653C744.358 51.6704 746.962 51.0727 749.949 51.0727L750.473 51.0804C753.079 51.1504 755.422 51.7451 757.503 52.8653C759.721 54.0601 761.599 55.5963 763.135 57.4738C764.757 59.3513 765.951 61.4854 766.72 63.8749C767.573 66.2646 768 68.6547 768.001 71.0444L767.995 71.4926C767.945 73.733 767.52 75.9735 766.72 78.214L766.57 78.6438C765.8 80.779 764.655 82.727 763.135 84.4872L762.843 84.8353C761.363 86.5554 759.583 87.9756 757.503 89.0957L757.082 89.2976C754.967 90.2726 752.589 90.7603 749.949 90.7604V89.7756C752.631 89.7755 754.992 89.248 757.055 88.2176C759.157 87.083 760.926 85.6315 762.373 83.863L762.381 83.8534L762.39 83.8428C763.929 82.0605 765.059 80.082 765.786 77.9024L765.789 77.8928L765.792 77.8831C766.61 75.5931 767.016 73.3145 767.016 71.0444C767.016 68.7745 766.61 66.4967 765.792 64.2067L765.787 64.1913L765.782 64.1769C765.054 61.9115 763.924 59.8945 762.39 58.1181L762.381 58.1076L762.373 58.0979C760.921 56.3239 759.145 54.8689 757.035 53.7327C754.976 52.6239 752.622 52.0575 749.949 52.0575C747.095 52.0575 744.658 52.6283 742.607 53.7327L742.58 53.7462C740.487 54.7926 738.77 56.1929 737.413 57.9479C736.036 59.7301 734.979 61.7616 734.244 64.049C733.592 66.2561 733.267 68.5017 733.267 70.7886C733.267 73.0793 733.593 75.3741 734.249 77.6754C734.984 79.9551 736.04 81.9799 737.413 83.7572C738.775 85.5189 740.501 86.9668 742.607 88.1003C744.658 89.2048 747.095 89.7756 749.949 89.7756V90.7604L749.393 90.7527C746.822 90.6874 744.544 90.1652 742.56 89.1851L742.139 88.9678C740.059 87.8477 738.317 86.4275 736.911 84.7074L736.634 84.3593C735.184 82.4817 734.074 80.3478 733.306 77.9581C732.666 75.7178 732.326 73.4771 732.286 71.2368L732.282 70.7886ZM783.835 102.755H767.272V95.3583C765.218 97.9976 762.618 100.089 759.478 101.626L759.479 101.627C755.582 103.575 751.376 104.547 746.877 104.547C742.061 104.547 737.694 103.671 733.795 101.898L733.782 101.893L733.77 101.886C729.993 100.042 726.733 97.6216 724 94.6245L723.991 94.613L723.98 94.6014C721.339 91.5202 719.277 87.9606 717.788 83.9323L717.783 83.9207L717.779 83.9082C716.377 79.788 715.678 75.4127 715.678 70.7886C715.678 66.1581 716.421 61.8167 717.916 57.7729C719.408 53.736 721.52 50.211 724.256 47.2095C726.996 44.2043 730.268 41.8618 734.06 40.1861C737.865 38.4196 742.014 37.5425 746.492 37.5424C749.377 37.5424 751.988 37.8908 754.313 38.6032C756.592 39.2177 758.592 40.0148 760.3 41.0036H760.299C762.056 41.9713 763.57 43.0363 764.83 44.2061C765.438 44.7708 765.996 45.3289 766.503 45.8795V4H783.835V102.755Z" fill="#1C6EE0"/>
<path d="M710.047 38.9109C709.599 38.7616 709.085 38.6776 708.506 38.659L708.254 38.6551C707.743 38.5911 707.255 38.5509 706.791 38.5349L706.334 38.5272C702.237 38.5273 698.653 39.6367 695.58 41.8557L695.012 42.2798C692.211 44.4401 690.011 47.2006 688.411 50.561H688.155V40.3189H673.432V101.77H688.795V68.8681C688.795 67.8972 688.958 66.6322 689.285 65.0732L689.435 64.3875C689.835 62.6273 690.573 60.9045 691.648 59.2193L691.868 58.8827C693.063 57.0904 694.727 55.5534 696.86 54.2732C698.994 52.993 701.811 52.3537 705.31 52.3537L705.822 52.3614C706.334 52.3774 706.846 52.4176 707.358 52.4816C708.126 52.5669 709.023 52.7372 710.047 52.9932V38.9109ZM711.032 54.255L709.808 53.9491C708.812 53.7003 707.961 53.5397 707.249 53.4606L707.236 53.4587C706.594 53.3784 705.951 53.3385 705.31 53.3385C701.92 53.3385 699.298 53.9602 697.367 55.1186C695.339 56.3353 693.79 57.7755 692.687 59.4289C691.551 61.1332 690.793 62.8582 690.396 64.6058C689.975 66.4558 689.78 67.8665 689.78 68.8681V102.755H672.447V39.3341H689.14V47.2403C690.715 44.8082 692.669 42.744 695.004 41.0575C698.258 38.7073 702.048 37.5425 706.334 37.5424C706.96 37.5424 707.621 37.5865 708.317 37.6713C709.055 37.6764 709.741 37.7712 710.359 37.9771L711.032 38.2012V54.255Z" fill="#1C6EE0"/>
<path d="M637.395 61.8274C637.395 58.2641 636.111 55.7906 633.626 54.2088L633.611 54.1992L633.596 54.1886C631.054 52.4412 627.97 51.5458 624.296 51.5458C621.197 51.5459 618.221 52.1973 615.36 53.5048C612.461 54.8303 610.089 56.4326 608.223 58.2989L607.467 59.0539L598.228 48.1751L598.919 47.5346C602.516 44.2004 606.643 41.6984 611.29 40.0323L611.296 40.0304C616.006 38.3734 620.768 37.5424 625.577 37.5424C631.122 37.5425 635.75 38.3201 639.415 39.9294C643.11 41.5139 646.062 43.6037 648.228 46.2209C650.363 48.8008 651.836 51.6988 652.642 54.906C653.518 58.0611 653.958 61.2226 653.958 64.3875V102.755H637.651V96.5845C636.052 98.5584 633.92 100.234 631.283 101.618L631.266 101.627C627.697 103.411 623.66 104.291 619.176 104.291C616.611 104.291 613.927 103.937 611.128 103.238C608.381 102.615 605.809 101.549 603.417 100.043L603.38 100.02C601.049 98.4058 599.083 96.3461 597.48 93.8532L597.469 93.8359L597.459 93.8186C595.9 91.1592 595.147 87.9477 595.147 84.2314C595.147 79.4331 596.486 75.5012 599.255 72.5476L599.259 72.5418L599.792 72.009C602.472 69.4129 605.802 67.4206 609.757 66.0195C613.939 64.5385 618.541 63.5852 623.557 63.1517L625.452 62.9709C629.515 62.607 633.496 62.4135 637.395 62.3852V61.8274ZM637.395 75.9097V74.7182H634.922C632.481 74.7182 629.909 74.8446 627.206 75.098L627.175 75.1C624.518 75.266 622.086 75.7218 619.872 76.4598L619.855 76.4646L619.84 76.4694C617.651 77.1181 615.865 78.0798 614.453 79.3344L614.442 79.344L614.429 79.3546C613.153 80.4179 612.479 81.9129 612.479 83.9746C612.479 85.271 612.743 86.3168 613.221 87.154C613.817 87.9593 614.556 88.6205 615.448 89.1409C616.369 89.6782 617.417 90.0696 618.601 90.3065C619.819 90.55 621.034 90.6719 622.248 90.6719V91.6567L621.768 91.65C620.808 91.626 619.848 91.5304 618.888 91.3624L618.408 91.272C617.288 91.048 616.265 90.6938 615.341 90.2084L614.952 89.992C614.056 89.4693 613.29 88.816 612.655 88.032L612.391 87.6877C611.793 86.6636 611.494 85.4255 611.494 83.9746C611.494 81.8144 612.17 80.104 613.52 78.8439L613.799 78.5977C615.24 77.3177 617.017 76.3378 619.132 75.6577L619.56 75.525C621.864 74.7569 624.382 74.2878 627.113 74.1171C629.503 73.8931 631.795 73.7671 633.989 73.7391L634.922 73.7334H638.38V75.9097L638.375 76.3627C638.292 81.0134 636.929 84.7035 634.283 87.4319L634.023 87.6916C631.3 90.3349 627.374 91.6567 622.248 91.6567V90.6719C627.369 90.6719 631.088 89.312 633.576 86.7462C636.088 84.1553 637.395 80.5832 637.395 75.9097ZM638.38 63.3633C633.6 63.3633 628.692 63.6196 623.657 64.1317C618.707 64.5584 614.183 65.4967 610.086 66.9476C605.99 68.3984 602.619 70.4898 599.973 73.2208C597.413 75.9519 596.132 79.6226 596.132 84.2314L596.141 84.8969C596.226 88.1923 596.948 91.0001 598.308 93.3205C599.845 95.7102 601.722 97.6737 603.941 99.21C606.245 100.661 608.721 101.684 611.366 102.282C613.927 102.922 616.375 103.262 618.71 103.302L619.176 103.306C623.529 103.306 627.412 102.453 630.826 100.746C634.239 98.9536 636.715 96.6919 638.251 93.961H638.636V101.77H652.974V64.3875C652.974 61.315 652.547 58.2421 651.694 55.1695C650.973 52.2893 649.691 49.6715 647.846 47.3162L647.469 46.8489C645.42 44.3738 642.604 42.3677 639.019 40.8315C635.739 39.3913 631.596 38.6259 626.59 38.5359L625.577 38.5272C620.883 38.5272 616.231 39.3377 611.622 40.9594C607.099 42.581 603.087 45.0137 599.588 48.2568L607.526 57.6027C609.366 55.7624 611.656 54.1843 614.397 52.8691L614.952 52.6095C617.939 51.244 621.053 50.5611 624.296 50.561L625.01 50.5716C628.546 50.6816 631.594 51.6175 634.155 53.3779C636.971 55.1702 638.38 57.987 638.38 61.8274V63.3633Z" fill="#1C6EE0"/>
<path d="M579.26 4.98479H563.897V48.1289H563.513C562.841 47.2327 562.006 46.3034 561.007 45.3419L560.569 44.9283C559.374 43.8189 557.923 42.7944 556.216 41.8557C554.797 41.0342 553.149 40.3433 551.273 39.7832L550.455 39.5514C548.374 38.9114 546.032 38.5711 543.427 38.531L542.901 38.5272C538.549 38.5272 534.538 39.3804 530.868 41.0873L530.186 41.3989C526.805 42.9941 523.874 45.1517 521.394 47.8721L520.904 48.4222C518.494 51.2027 516.609 54.4336 515.249 58.1143C513.798 62.0403 513.072 66.2652 513.072 70.7886L513.08 71.634C513.16 75.8446 513.84 79.8303 515.121 83.5909C516.572 87.5169 518.578 90.9738 521.138 93.9609C523.784 96.8627 526.942 99.2094 530.612 101.002C534.132 102.602 538.065 103.452 542.411 103.552L543.285 103.563C547.638 103.563 551.693 102.623 555.448 100.746C559.289 98.8681 562.275 96.1366 564.409 92.552H564.666V101.77H579.26V4.98479ZM528.691 70.7886C528.691 68.3989 529.033 66.0514 529.716 63.747C530.436 61.5069 531.456 59.4918 532.776 57.7017L533.044 57.3459C534.495 55.4683 536.33 53.9748 538.549 52.8653C540.768 51.6705 543.371 51.0727 546.358 51.0727C549.174 51.0727 551.692 51.6706 553.911 52.8653C556.13 54.0601 558.009 55.5962 559.545 57.4738C561.166 59.3513 562.361 61.4853 563.129 63.8749C563.983 66.2646 564.409 68.6547 564.409 71.0444C564.409 73.4342 563.983 75.8242 563.129 78.214L562.98 78.6438C562.21 80.7791 561.065 82.727 559.545 84.4872L559.252 84.8353C557.772 86.5555 555.991 87.9755 553.911 89.0957C551.692 90.2051 549.174 90.7604 546.358 90.7604V89.7756C549.042 89.7756 551.406 89.2471 553.471 88.2148C555.569 87.0806 557.337 85.6298 558.782 83.863L558.791 83.8534L558.799 83.8428C560.339 82.0605 561.469 80.0819 562.195 77.9024L562.198 77.8928L562.202 77.8831C563.02 75.5931 563.424 73.3145 563.424 71.0444C563.424 68.7745 563.02 66.4966 562.202 64.2067L562.196 64.1913L562.191 64.1769C561.463 61.9116 560.334 59.8945 558.799 58.1181L558.791 58.1076L558.782 58.0979C557.331 56.3239 555.555 54.869 553.445 53.7327C551.385 52.6239 549.031 52.0575 546.358 52.0575C543.504 52.0575 541.067 52.6284 539.016 53.7327L538.989 53.7462C536.897 54.7926 535.179 56.1929 533.823 57.9479C532.446 59.7301 531.388 61.7616 530.653 64.049C530.001 66.2561 529.676 68.5017 529.676 70.7886C529.676 73.0729 530 75.3613 530.653 77.6562L530.795 78.0822C531.522 80.1966 532.532 82.0864 533.823 83.7572C535.184 85.5189 536.911 86.9668 539.016 88.1003C541.067 89.2047 543.504 89.7756 546.358 89.7756V90.7604L545.803 90.7527C543.231 90.6874 540.953 90.1654 538.969 89.1851L538.549 88.9678C536.468 87.8476 534.725 86.4277 533.32 84.7074L533.044 84.3593C531.593 82.4817 530.484 80.3478 529.716 77.9581C529.075 75.7178 528.735 73.4771 528.695 71.2368L528.691 70.7886ZM580.245 102.755H563.681V95.3583C561.627 97.9976 559.027 100.089 555.887 101.626C551.99 103.574 547.785 104.547 543.285 104.547C538.47 104.547 534.104 103.671 530.204 101.898L530.192 101.893L530.179 101.886C526.402 100.042 523.143 97.6216 520.41 94.6245L520.399 94.613L520.39 94.6014C517.749 91.5202 515.686 87.9606 514.197 83.9323L514.193 83.9207L514.189 83.9082C512.786 79.788 512.087 75.4127 512.087 70.7886C512.087 66.1581 512.831 61.8167 514.325 57.7729C515.817 53.736 517.929 50.211 520.666 47.2095C523.235 44.3921 526.27 42.1573 529.765 40.5083L530.469 40.1861C534.274 38.4196 538.423 37.5424 542.901 37.5424C545.786 37.5424 548.397 37.891 550.721 38.6032C553.001 39.2178 555.002 40.0147 556.71 41.0036H556.709C558.465 41.9712 559.979 43.0365 561.238 44.2061C561.847 44.7709 562.405 45.3289 562.913 45.8795V4H580.245V102.755Z" fill="#1C6EE0"/>
<path d="M496.297 63.3633C496.297 60.2054 495.871 57.1325 495.017 54.1453C494.164 51.1583 492.798 48.5127 490.92 46.2084C489.128 43.9041 486.781 42.0691 483.88 40.7035C481.239 39.3433 478.073 38.6209 474.383 38.5359L473.637 38.5272C469.029 38.5272 465.017 39.7218 461.604 42.1115L460.991 42.5481C457.985 44.7535 455.842 47.2968 454.562 50.1773H454.306V40.3189H439.711V101.77H455.075V67.9718C455.075 66.1795 455.303 64.4199 455.76 62.693L455.97 61.9553C456.567 59.9071 457.421 58.1147 458.531 56.5784C459.726 55.0422 461.219 53.8041 463.012 52.8653C464.804 51.8411 466.938 51.3295 469.413 51.3294L469.87 51.3352C472.131 51.3952 473.942 51.9051 475.302 52.8653C476.838 53.8895 478.033 55.2127 478.886 56.8343C479.74 58.3705 480.295 60.1203 480.551 62.0833C480.807 64.0461 480.935 65.9238 480.935 67.716V101.77H496.297V63.3633ZM455.291 46.8921C456.731 44.8174 458.655 42.955 461.043 41.3017C464.639 38.7859 468.851 37.5424 473.637 37.5424C477.751 37.5424 481.317 38.2836 484.299 39.812L484.86 40.0852C487.634 41.4801 489.92 43.3173 491.698 45.6034H491.697C493.656 48.0121 495.078 50.7727 495.964 53.8751C496.843 56.9517 497.282 60.1154 497.282 63.3633V102.755H479.95V67.716C479.95 65.9704 479.825 64.1353 479.574 62.2102C479.332 60.355 478.812 58.7269 478.026 57.3122L478.02 57.3026L478.015 57.293C477.239 55.8181 476.156 54.6183 474.756 53.6847L474.744 53.6779L474.734 53.6702C473.503 52.8014 471.762 52.3142 469.413 52.3142C467.075 52.3142 465.117 52.7966 463.5 53.7203L463.485 53.7299L463.468 53.7376C461.802 54.6104 460.423 55.7529 459.32 57.166C458.289 58.5978 457.485 60.282 456.916 62.2304L456.912 62.2419C456.343 64.112 456.059 66.0209 456.059 67.9718V102.755H438.727V39.3341H455.291V46.8921Z" fill="#1C6EE0"/>
<path d="M403.673 61.8274C403.673 58.2642 402.391 55.7906 399.905 54.2088L399.89 54.1992L399.875 54.1886C397.333 52.4411 394.25 51.5458 390.576 51.5458C387.476 51.5459 384.5 52.1973 381.64 53.5048C378.74 54.8303 376.368 56.4326 374.502 58.2989L373.746 59.0539L364.507 48.1751L365.198 47.5346C368.796 44.2004 372.922 41.6984 377.57 40.0323L377.574 40.0304C382.284 38.3734 387.046 37.5425 391.856 37.5424C397.4 37.5424 402.029 38.3201 405.695 39.9294C409.389 41.5139 412.341 43.6038 414.507 46.2209C416.642 48.8008 418.115 51.6988 418.921 54.906C419.798 58.0611 420.238 61.2226 420.238 64.3875V102.755H403.93V96.5845C402.332 98.5585 400.2 100.234 397.563 101.618L397.554 101.622L397.545 101.627C393.977 103.411 389.939 104.291 385.455 104.291C382.889 104.291 380.206 103.937 377.407 103.238C374.66 102.615 372.087 101.549 369.695 100.043L369.678 100.031L369.66 100.02C367.328 98.4057 365.361 96.3463 363.759 93.8532L363.737 93.8186C362.178 91.1592 361.426 87.9476 361.426 84.2314C361.426 79.4333 362.764 75.5012 365.533 72.5476L366.071 72.009C368.751 69.413 372.081 67.4206 376.037 66.0195C380.218 64.5385 384.82 63.5852 389.836 63.1517L391.731 62.9709C395.794 62.6071 399.774 62.4136 403.673 62.3852V61.8274ZM403.673 75.9097V74.7182H401.202C398.76 74.7182 396.188 74.8446 393.484 75.098L393.47 75.099L393.454 75.1C390.798 75.266 388.365 75.7219 386.151 76.4598L386.135 76.4646L386.119 76.4694C383.93 77.1181 382.144 78.0798 380.733 79.3344L380.72 79.344L380.709 79.3546C379.433 80.418 378.758 81.9129 378.758 83.9746C378.758 85.271 379.022 86.3168 379.501 87.154C380.096 87.9591 380.834 88.6206 381.726 89.1409C382.647 89.6782 383.695 90.0696 384.88 90.3065C386.097 90.55 387.313 90.6719 388.527 90.6719V91.6567L388.047 91.65C387.087 91.626 386.127 91.5304 385.167 91.3624L384.687 91.272C383.567 91.048 382.544 90.6938 381.62 90.2084L381.23 89.992C380.334 89.4694 379.569 88.8159 378.934 88.032L378.67 87.6877C378.072 86.6636 377.774 85.4255 377.774 83.9746C377.774 81.6704 378.542 79.8779 380.078 78.5977C381.518 77.3175 383.296 76.3379 385.411 75.6577L385.839 75.525C387.856 74.853 390.035 74.4097 392.378 74.195L393.393 74.1171C395.782 73.8931 398.074 73.7671 400.268 73.7391L401.202 73.7334H404.658V75.9097L404.654 76.3627C404.571 81.0134 403.208 84.7035 400.562 87.4319L400.301 87.6916C397.578 90.3346 393.653 91.6567 388.527 91.6567V90.6719C393.648 90.6719 397.366 89.3118 399.854 86.7462C402.367 84.1553 403.673 80.5833 403.673 75.9097ZM404.658 63.3633C399.879 63.3633 394.972 63.6196 389.936 64.1317C384.986 64.5584 380.462 65.4967 376.366 66.9476L375.606 67.2274C371.85 68.6627 368.732 70.6603 366.251 73.2208C363.691 75.9519 362.411 79.6226 362.411 84.2314L362.42 84.8969C362.505 88.1923 363.227 91.0001 364.588 93.3205C366.124 95.7102 368.001 97.6737 370.22 99.21C372.525 100.661 375 101.684 377.646 102.282C380.377 102.964 382.98 103.306 385.455 103.306C389.807 103.306 393.691 102.453 397.105 100.746C400.519 98.9536 402.994 96.692 404.53 93.961H404.915V101.77H419.253V64.3875C419.253 61.315 418.826 58.2421 417.973 55.1695C417.253 52.2891 415.969 49.6716 414.124 47.3162L413.748 46.8489C411.7 44.3738 408.883 42.3677 405.299 40.8315C402.018 39.3912 397.875 38.6258 392.868 38.5359L391.856 38.5272C387.162 38.5272 382.51 39.3378 377.901 40.9594C373.378 42.581 369.367 45.0136 365.868 48.2568L373.805 57.6027C375.645 55.7624 377.936 54.1843 380.676 52.8691L381.23 52.6095C384.217 51.2439 387.333 50.5611 390.576 50.561L391.289 50.5716C394.825 50.6816 397.873 51.6176 400.433 53.3779C403.25 55.1702 404.658 57.9868 404.658 61.8274V63.3633Z" fill="#1C6EE0"/>
<path d="M337.722 81.1587V52.6095H353.086V40.3189H337.722V22.5244H322.616V40.3189H311.862V52.6095H322.616V81.2866L322.628 82.3983C322.684 84.9749 322.936 87.421 323.384 89.7362C323.982 92.2965 325.006 94.6006 326.457 96.6489C327.993 98.6119 330.042 100.191 332.602 101.386C335.003 102.426 338.078 102.978 341.829 103.043L342.588 103.05C344.294 103.05 346.087 102.88 347.964 102.538C349.608 102.314 351.055 101.992 352.306 101.572L352.83 101.386L352.317 89.3515C351.378 89.7782 350.311 90.1197 349.117 90.3757C347.922 90.5464 346.812 90.6325 345.788 90.6325V89.6477C346.748 89.6477 347.799 89.5672 348.942 89.4053C350.066 89.1623 351.054 88.8442 351.909 88.4552L353.239 87.8512L353.843 102.058L353.175 102.308C351.731 102.849 350.044 103.246 348.125 103.509C346.202 103.858 344.355 104.035 342.588 104.035C338.414 104.035 334.938 103.471 332.21 102.289L332.197 102.285L332.186 102.279C329.504 101.027 327.325 99.3563 325.681 97.2558L325.666 97.2375L325.653 97.2182C324.125 95.061 323.05 92.6378 322.425 89.9593L322.421 89.941L322.418 89.9227C321.892 87.2092 321.631 84.3298 321.631 81.2866V53.5943H310.877V39.3341H321.631V21.5396H338.707V39.3341H354.07V53.5943H338.707V81.1587C338.707 83.7724 339.156 85.8577 339.993 87.4656C340.752 88.7812 342.496 89.6477 345.788 89.6477V90.6325L345.162 90.6219C342.102 90.5169 340.091 89.6238 339.131 87.9435C338.251 86.2632 337.783 84.1702 337.728 81.6646L337.722 81.1587Z" fill="#1C6EE0"/>
<path d="M303.495 75.1413C303.495 70.9807 302.745 67.4576 301.245 64.5722L300.934 64.0038C299.312 61.0166 297.179 58.5414 294.533 56.5784C291.973 54.6154 289.113 53.036 285.956 51.8411C283.267 50.7956 280.644 49.8487 278.086 48.9992L276.994 48.6405C274.434 47.8724 272.086 47.1044 269.953 46.3363C267.819 45.5682 265.984 44.6724 264.448 43.6483C263.088 42.6881 261.99 41.5397 261.155 40.2044L260.992 39.9351C260.138 38.4842 259.711 36.7345 259.711 34.6861C259.711 32.4672 260.181 30.5897 261.119 29.0534C262.144 27.4319 263.423 26.1512 264.96 25.2124C266.496 24.1882 268.203 23.4628 270.081 23.036C271.958 22.524 273.836 22.2677 275.713 22.2676C278.871 22.2676 281.987 23.0366 285.059 24.5728C288.217 26.0238 290.65 27.8586 292.357 30.0777L302.855 18.5554C299.355 15.3122 295.216 12.8796 290.436 11.258C286.035 9.73778 281.672 8.93046 277.346 8.83547L276.482 8.82585C272.385 8.82587 268.331 9.38015 264.32 10.4896L263.588 10.6887C259.953 11.7188 256.655 13.2745 253.694 15.3549C250.622 17.4886 248.104 20.22 246.141 23.5486L245.799 24.1795C244.149 27.3751 243.324 31.1337 243.324 35.4546L243.332 36.247C243.412 40.1675 244.092 43.488 245.372 46.2084C246.738 49.0248 248.488 51.4149 250.621 53.3779C252.84 55.3408 255.316 56.9194 258.047 58.1143C260.778 59.3092 263.509 60.3335 266.241 61.1869C269.057 62.1257 271.745 63.0215 274.305 63.8749C276.866 64.7283 279.085 65.7528 280.962 66.9476C282.84 68.0571 284.334 69.4228 285.444 71.0444C286.553 72.5807 287.108 74.5442 287.108 76.9339L287.102 77.3936C287.042 79.6689 286.532 81.607 285.572 83.2071L285.392 83.5082C284.472 84.9984 283.251 86.2629 281.731 87.3031C280.194 88.4126 278.445 89.2241 276.482 89.7362C274.519 90.1629 272.599 90.3757 270.721 90.3757V89.3909C272.518 89.3909 274.363 89.1868 276.256 88.7764C278.1 88.2926 279.73 87.5339 281.155 86.5048L281.164 86.4981L281.175 86.4904C282.681 85.4598 283.858 84.2019 284.72 82.7138L284.893 82.4109C285.698 80.9398 286.123 79.1276 286.123 76.9339C286.123 74.6967 285.605 72.9506 284.645 71.6215L284.638 71.6109L284.63 71.6003C283.611 70.1103 282.228 68.8401 280.461 67.7958L280.434 67.7785C278.637 66.6348 276.493 65.6429 273.994 64.8097C271.439 63.958 268.756 63.0632 265.946 62.1265C263.179 61.2619 260.414 60.225 257.652 59.0164C254.827 57.7807 252.265 56.1468 249.968 54.1155L249.955 54.102C247.723 52.049 245.902 49.5569 244.487 46.6382L244.481 46.6277C243.037 43.559 242.339 39.8208 242.339 35.4546C242.339 30.7112 243.307 26.5687 245.283 23.0649L245.288 23.0562L245.293 23.0485C247.324 19.6034 249.937 16.7659 253.128 14.549C256.383 12.2615 260.029 10.5929 264.057 9.5404L264.826 9.33556C268.671 8.33987 272.557 7.84108 276.482 7.84106C281.206 7.84106 285.965 8.67185 290.753 10.3252C295.655 11.9886 299.917 14.4904 303.524 17.8332L304.24 18.4968L292.293 31.6096L291.576 30.6778C289.987 28.6125 287.695 26.8672 284.649 25.4672L284.633 25.4605L284.619 25.4538C281.671 23.9798 278.705 23.2524 275.713 23.2524C273.927 23.2525 272.136 23.4964 270.34 23.9862L270.32 23.992L270.299 23.9968C268.533 24.3981 266.938 25.077 265.506 26.0317L265.49 26.0423L265.473 26.0529C264.074 26.9077 262.901 28.0773 261.952 29.5795C261.133 30.9267 260.695 32.6127 260.695 34.6861C260.695 36.5969 261.093 38.1661 261.84 39.436C262.614 40.7527 263.661 41.883 264.994 42.828L265.555 43.1876C266.896 44.0137 268.471 44.7565 270.286 45.4101C271.872 45.981 273.579 46.5525 275.408 47.1249L277.277 47.6971L277.287 47.7009L277.297 47.7038C280.215 48.6479 283.217 49.7201 286.303 50.9198C289.541 52.1451 292.483 53.7673 295.12 55.787C297.884 57.8381 300.112 60.4244 301.8 63.5335C303.606 66.7033 304.48 70.5891 304.48 75.1413C304.48 80.1275 303.56 84.5475 301.691 88.3754L301.687 88.384C299.834 92.0899 297.356 95.1911 294.252 97.6741C291.157 100.15 287.542 101.998 283.42 103.226C279.313 104.45 274.993 105.059 270.465 105.059C264.454 105.059 258.575 103.97 252.833 101.795L252.821 101.79C247.049 99.5164 242.3 96.1815 238.601 91.7779L238 91.0624L251.022 78.9083L251.675 79.8133C253.791 82.7423 256.603 85.0726 260.136 86.7991L260.817 87.1146C264.22 88.6413 267.519 89.3909 270.721 89.3909V90.3757L270.048 90.3651C266.902 90.2671 263.691 89.483 260.415 88.0128L259.711 87.6877C256.041 85.8954 253.096 83.4628 250.877 80.3903L239.355 91.1441C242.94 95.4114 247.549 98.6546 253.182 100.874C258.462 102.874 263.856 103.937 269.362 104.062L270.465 104.074C274.903 104.074 279.128 103.476 283.139 102.282C287.15 101.087 290.649 99.2945 293.637 96.9047C296.624 94.515 299.014 91.5282 300.806 87.9436C302.487 84.5029 303.38 80.5371 303.485 76.0463L303.495 75.1413Z" fill="#1C6EE0"/>
<path d="M242.858 139.839H252.55C254.254 139.839 255.81 140.019 257.216 140.378C258.621 140.707 259.818 141.23 260.805 141.948C261.792 142.666 262.555 143.578 263.093 144.685C263.631 145.792 263.901 147.123 263.901 148.678C263.901 150.263 263.602 151.624 263.003 152.761C262.435 153.897 261.627 154.825 260.581 155.542C259.564 156.26 258.337 156.799 256.902 157.158C255.496 157.487 253.97 157.651 252.325 157.651H247.3V171.604H242.858V139.839ZM247.3 153.882H252.011C253.088 153.882 254.075 153.793 254.972 153.613C255.9 153.404 256.692 153.105 257.35 152.716C258.008 152.297 258.517 151.759 258.876 151.101C259.235 150.443 259.414 149.635 259.414 148.678C259.414 147.721 259.22 146.928 258.831 146.3C258.472 145.642 257.963 145.119 257.305 144.73C256.677 144.311 255.914 144.027 255.017 143.877C254.12 143.698 253.148 143.608 252.101 143.608H247.3V153.882ZM304.268 155.677C304.268 158.13 303.834 160.388 302.967 162.452C302.129 164.486 300.963 166.25 299.467 167.746C297.972 169.212 296.192 170.363 294.128 171.201C292.064 172.008 289.821 172.412 287.398 172.412C284.975 172.412 282.732 172.008 280.668 171.201C278.634 170.363 276.87 169.212 275.374 167.746C273.879 166.25 272.712 164.486 271.875 162.452C271.037 160.388 270.618 158.13 270.618 155.677C270.618 153.194 271.037 150.936 271.875 148.902C272.712 146.838 273.879 145.089 275.374 143.653C276.87 142.187 278.634 141.051 280.668 140.243C282.732 139.436 284.975 139.032 287.398 139.032C289.821 139.032 292.064 139.436 294.128 140.243C296.192 141.051 297.972 142.187 299.467 143.653C300.963 145.089 302.129 146.838 302.967 148.902C303.834 150.936 304.268 153.194 304.268 155.677ZM299.467 155.677C299.467 153.942 299.183 152.312 298.615 150.787C298.046 149.231 297.239 147.87 296.192 146.704C295.145 145.537 293.874 144.625 292.378 143.967C290.913 143.279 289.253 142.935 287.398 142.935C285.574 142.935 283.914 143.279 282.418 143.967C280.952 144.625 279.696 145.537 278.649 146.704C277.632 147.87 276.84 149.231 276.271 150.787C275.703 152.312 275.419 153.942 275.419 155.677C275.419 157.442 275.703 159.102 276.271 160.657C276.84 162.212 277.647 163.573 278.694 164.74C279.741 165.877 280.997 166.774 282.463 167.432C283.928 168.09 285.574 168.419 287.398 168.419C289.223 168.419 290.883 168.09 292.378 167.432C293.874 166.774 295.145 165.877 296.192 164.74C297.239 163.573 298.046 162.212 298.615 160.657C299.183 159.102 299.467 157.442 299.467 155.677ZM321.39 165.144H321.48L328.928 139.839H333.818L341.221 165.144H341.311L348.31 139.839H353.021L343.688 171.604H339.067L331.35 146.076H331.261L323.544 171.604H318.922L309.59 139.839H314.391L321.39 165.144ZM364.474 167.656H381.074V171.604H360.032V139.839H380.401V143.743H364.474V153.254H379.459V157.068H364.474V167.656ZM394.112 171.604H389.67V139.839H399.855C401.38 139.839 402.831 140.004 404.207 140.333C405.583 140.632 406.779 141.125 407.796 141.813C408.843 142.501 409.665 143.414 410.264 144.55C410.862 145.657 411.161 147.018 411.161 148.633C411.161 150.966 410.443 152.85 409.007 154.286C407.572 155.722 405.717 156.634 403.444 157.023L412.327 171.604H406.944L398.868 157.472H394.112V171.604ZM394.112 153.748H399.227C400.273 153.748 401.246 153.658 402.143 153.479C403.04 153.299 403.818 153.015 404.476 152.626C405.164 152.207 405.702 151.684 406.091 151.056C406.48 150.398 406.674 149.59 406.674 148.633C406.674 147.676 406.48 146.883 406.091 146.255C405.702 145.597 405.179 145.074 404.521 144.685C403.893 144.296 403.145 144.027 402.278 143.877C401.41 143.698 400.498 143.608 399.541 143.608H394.112V153.748ZM424.363 167.656H440.964V171.604H419.921V139.839H440.291V143.743H424.363V153.254H439.348V157.068H424.363V167.656ZM449.559 139.839H460.462C462.496 139.839 464.53 140.138 466.563 140.737C468.597 141.335 470.437 142.277 472.082 143.563C473.727 144.849 475.058 146.494 476.075 148.498C477.092 150.502 477.6 152.91 477.6 155.722C477.6 158.444 477.092 160.807 476.075 162.811C475.058 164.785 473.727 166.43 472.082 167.746C470.437 169.032 468.597 170.004 466.563 170.662C464.53 171.29 462.496 171.604 460.462 171.604H449.559V139.839ZM454.001 167.701H459.564C461.479 167.701 463.243 167.432 464.859 166.894C466.504 166.355 467.909 165.577 469.076 164.56C470.272 163.544 471.2 162.287 471.858 160.792C472.516 159.296 472.845 157.606 472.845 155.722C472.845 153.748 472.516 152.013 471.858 150.517C471.2 149.022 470.272 147.781 469.076 146.794C467.909 145.777 466.504 145.014 464.859 144.505C463.243 143.967 461.479 143.698 459.564 143.698H454.001V167.701ZM500.291 139.839H511.238C512.435 139.839 513.631 139.974 514.828 140.243C516.024 140.512 517.086 140.961 518.013 141.589C518.97 142.217 519.733 143.04 520.301 144.057C520.9 145.074 521.199 146.345 521.199 147.87C521.199 149.635 520.69 151.116 519.673 152.312C518.656 153.508 517.31 154.331 515.635 154.78V154.869C516.652 154.989 517.594 155.258 518.462 155.677C519.329 156.066 520.077 156.589 520.705 157.247C521.333 157.905 521.812 158.683 522.141 159.58C522.5 160.478 522.679 161.48 522.679 162.586C522.679 164.112 522.365 165.443 521.737 166.579C521.109 167.716 520.256 168.658 519.18 169.406C518.103 170.124 516.832 170.677 515.366 171.066C513.93 171.425 512.39 171.604 510.745 171.604H500.291V139.839ZM504.733 153.254H510.521C511.358 153.254 512.151 153.165 512.898 152.985C513.676 152.776 514.349 152.477 514.917 152.088C515.486 151.669 515.934 151.16 516.263 150.562C516.592 149.934 516.757 149.186 516.757 148.319C516.757 146.614 516.129 145.403 514.873 144.685C513.616 143.937 511.926 143.563 509.803 143.563H504.733V153.254ZM504.733 167.836H510.296C511.223 167.836 512.151 167.761 513.078 167.611C514.035 167.432 514.888 167.133 515.635 166.714C516.413 166.295 517.026 165.742 517.475 165.054C517.953 164.336 518.193 163.439 518.193 162.362C518.193 160.478 517.55 159.117 516.263 158.279C514.977 157.442 513.123 157.023 510.7 157.023H504.733V167.836ZM544.152 171.604H539.666V157.875L527.776 139.839H533.25L542.043 154.196L550.882 139.839H556.042L544.152 157.875V171.604ZM598.781 149.62C598.781 151.475 598.437 153.045 597.75 154.331C597.062 155.587 596.134 156.604 594.968 157.382C593.801 158.16 592.455 158.728 590.93 159.087C589.404 159.446 587.819 159.625 586.174 159.625H582.36V171.604H574.688V139.839H586.354C588.088 139.839 589.704 140.019 591.199 140.378C592.725 140.707 594.041 141.26 595.147 142.038C596.284 142.786 597.166 143.788 597.794 145.044C598.452 146.27 598.781 147.796 598.781 149.62ZM591.109 149.665C591.109 148.917 590.96 148.304 590.661 147.825C590.362 147.347 589.958 146.973 589.449 146.704C588.941 146.435 588.358 146.255 587.7 146.165C587.071 146.076 586.413 146.031 585.725 146.031H582.36V153.523H585.591C586.309 153.523 586.997 153.464 587.655 153.344C588.313 153.224 588.896 153.015 589.404 152.716C589.943 152.417 590.362 152.028 590.661 151.549C590.96 151.041 591.109 150.413 591.109 149.665ZM623.083 171.604L616.219 158.997H613.616V171.604H606.079V139.839H618.193C619.718 139.839 621.199 140.004 622.634 140.333C624.1 140.632 625.401 141.155 626.538 141.903C627.704 142.651 628.631 143.638 629.319 144.864C630.007 146.091 630.351 147.616 630.351 149.441C630.351 151.594 629.768 153.404 628.602 154.869C627.435 156.335 625.82 157.382 623.756 158.01L632.056 171.604H623.083ZM622.769 149.575C622.769 148.827 622.604 148.229 622.275 147.781C621.976 147.302 621.573 146.943 621.064 146.704C620.585 146.435 620.032 146.255 619.404 146.165C618.806 146.076 618.223 146.031 617.654 146.031H613.571V153.434H617.206C617.834 153.434 618.477 153.389 619.135 153.299C619.793 153.179 620.391 152.985 620.929 152.716C621.468 152.447 621.902 152.058 622.231 151.549C622.589 151.041 622.769 150.383 622.769 149.575ZM671.632 155.587C671.632 158.1 671.198 160.403 670.331 162.497C669.463 164.56 668.252 166.34 666.697 167.836C665.171 169.301 663.347 170.438 661.223 171.246C659.099 172.053 656.796 172.457 654.314 172.457C651.831 172.457 649.528 172.053 647.404 171.246C645.31 170.438 643.486 169.301 641.931 167.836C640.405 166.34 639.209 164.56 638.341 162.497C637.474 160.403 637.04 158.1 637.04 155.587C637.04 153.045 637.474 150.757 638.341 148.723C639.209 146.659 640.405 144.909 641.931 143.473C643.486 142.038 645.31 140.931 647.404 140.153C649.528 139.376 651.831 138.987 654.314 138.987C656.796 138.987 659.099 139.376 661.223 140.153C663.347 140.931 665.171 142.038 666.697 143.473C668.252 144.909 669.463 146.659 670.331 148.723C671.198 150.757 671.632 153.045 671.632 155.587ZM663.421 155.587C663.421 154.211 663.197 152.925 662.748 151.729C662.3 150.532 661.672 149.515 660.864 148.678C660.086 147.811 659.129 147.138 657.993 146.659C656.886 146.15 655.66 145.896 654.314 145.896C652.968 145.896 651.741 146.15 650.635 146.659C649.528 147.138 648.571 147.811 647.763 148.678C646.956 149.515 646.327 150.532 645.879 151.729C645.46 152.925 645.251 154.211 645.251 155.587C645.251 157.023 645.475 158.354 645.924 159.58C646.372 160.777 646.985 161.809 647.763 162.676C648.571 163.544 649.528 164.231 650.635 164.74C651.741 165.219 652.968 165.458 654.314 165.458C655.66 165.458 656.886 165.219 657.993 164.74C659.099 164.231 660.056 163.544 660.864 162.676C661.672 161.809 662.3 160.777 662.748 159.58C663.197 158.354 663.421 157.023 663.421 155.587ZM691.611 146.39V171.604H683.939V146.39H674.966V139.839H700.584V146.39H691.611ZM738.531 155.587C738.531 158.1 738.098 160.403 737.23 162.497C736.363 164.56 735.151 166.34 733.596 167.836C732.071 169.301 730.246 170.438 728.122 171.246C725.999 172.053 723.696 172.457 721.213 172.457C718.73 172.457 716.427 172.053 714.304 171.246C712.21 170.438 710.385 169.301 708.83 167.836C707.305 166.34 706.108 164.56 705.241 162.497C704.373 160.403 703.94 158.1 703.94 155.587C703.94 153.045 704.373 150.757 705.241 148.723C706.108 146.659 707.305 144.909 708.83 143.473C710.385 142.038 712.21 140.931 714.304 140.153C716.427 139.376 718.73 138.987 721.213 138.987C723.696 138.987 725.999 139.376 728.122 140.153C730.246 140.931 732.071 142.038 733.596 143.473C735.151 144.909 736.363 146.659 737.23 148.723C738.098 150.757 738.531 153.045 738.531 155.587ZM730.321 155.587C730.321 154.211 730.096 152.925 729.648 151.729C729.199 150.532 728.571 149.515 727.763 148.678C726.986 147.811 726.029 147.138 724.892 146.659C723.785 146.15 722.559 145.896 721.213 145.896C719.867 145.896 718.641 146.15 717.534 146.659C716.427 147.138 715.47 147.811 714.663 148.678C713.855 149.515 713.227 150.532 712.778 151.729C712.359 152.925 712.15 154.211 712.15 155.587C712.15 157.023 712.374 158.354 712.823 159.58C713.272 160.777 713.885 161.809 714.663 162.676C715.47 163.544 716.427 164.231 717.534 164.74C718.641 165.219 719.867 165.458 721.213 165.458C722.559 165.458 723.785 165.219 724.892 164.74C725.999 164.231 726.956 163.544 727.763 162.676C728.571 161.809 729.199 160.777 729.648 159.58C730.096 158.354 730.321 157.023 730.321 155.587ZM766.464 171.604L753.677 150.831H753.543L753.722 171.604H746.275V139.839H755.023L767.765 160.567H767.9L767.72 139.839H775.168V171.604H766.464Z" fill="#1B1340"/>
</g>
<defs>
<clipPath id="clip0_4077_81">
<rect width="1189" height="186" fill="white"/>
</clipPath>
</defs>
</svg>
